<svg xmlns="http://www.w3.org/2000/svg" viewBox="0 0 1600 1000" preserveAspectRatio="xMidYMid slice">
<defs><radialGradient id="g" cx="0.738" cy="0.300" r="0.55"><stop offset="0" stop-color="#d64f61" stop-opacity=".16"/><stop offset="1" stop-color="#d64f61" stop-opacity="0"/></radialGradient></defs>
<rect width="1600" height="1000" fill="#12100f"/><rect width="1600" height="1000" fill="url(#g)"/>
<g stroke="#f2ece4" stroke-opacity=".045" stroke-width="1"><path d="M0 0V1000"/><path d="M80 0V1000"/><path d="M160 0V1000"/><path d="M240 0V1000"/><path d="M320 0V1000"/><path d="M400 0V1000"/><path d="M480 0V1000"/><path d="M560 0V1000"/><path d="M640 0V1000"/><path d="M720 0V1000"/><path d="M800 0V1000"/><path d="M880 0V1000"/><path d="M960 0V1000"/><path d="M1040 0V1000"/><path d="M1120 0V1000"/><path d="M1200 0V1000"/><path d="M1280 0V1000"/><path d="M1360 0V1000"/><path d="M1440 0V1000"/><path d="M1520 0V1000"/><path d="M1600 0V1000"/><path d="M0 0H1600"/><path d="M0 80H1600"/><path d="M0 160H1600"/><path d="M0 240H1600"/><path d="M0 320H1600"/><path d="M0 400H1600"/><path d="M0 480H1600"/><path d="M0 560H1600"/><path d="M0 640H1600"/><path d="M0 720H1600"/><path d="M0 800H1600"/><path d="M0 880H1600"/><path d="M0 960H1600"/></g>
<path d="M700 760L1520 760" stroke="#f2ece4" stroke-opacity="0.07" stroke-width="1.5" fill="none"/><path d="M700 660L1520 660" stroke="#f2ece4" stroke-opacity="0.07" stroke-width="1.5" fill="none"/><path d="M700 560L1520 560" stroke="#f2ece4" stroke-opacity="0.07" stroke-width="1.5" fill="none"/><path d="M700 460L1520 460" stroke="#f2ece4" stroke-opacity="0.07" stroke-width="1.5" fill="none"/><path d="M700 360L1520 360" stroke="#f2ece4" stroke-opacity="0.07" stroke-width="1.5" fill="none"/><path d="M700 260L1520 260" stroke="#f2ece4" stroke-opacity="0.07" stroke-width="1.5" fill="none"/><path d="M700 590 L768 573 L836 569 L904 581 L972 600 L1040 612 L1108 607 L1176 590 L1244 573 L1312 569 L1380 581 L1448 600 L1516 612" stroke="#f2ece4" stroke-opacity=".28" stroke-width="2" fill="none" stroke-dasharray="4 8"/><path d="M700 760 L700 590 L768 535 L836 517 L904 518 L972 493 L1040 434 L1108 384 L1176 372 L1244 372 L1312 340 L1380 279 L1448 234 L1516 227 L1516 760 Z" fill="#d64f61" fill-opacity=".07"/><path d="M700 590 L768 535 L836 517 L904 518 L972 493 L1040 434 L1108 384 L1176 372 L1244 372 L1312 340 L1380 279 L1448 234 L1516 227" stroke="#d64f61" stroke-width="3" fill="none"/><circle cx="700" cy="590.0" r="5" fill="#d64f61" fill-opacity="1"/><circle cx="904" cy="517.8819201387834" r="5" fill="#d64f61" fill-opacity="1"/><circle cx="1108" cy="384.0378730202603" r="5" fill="#d64f61" fill-opacity="1"/><circle cx="1312" cy="339.81157318189486" r="5" fill="#d64f61" fill-opacity="1"/><circle cx="1516" cy="227.1984050402145" r="5" fill="#d64f61" fill-opacity="1"/><circle cx="1180" cy="190" r="120" stroke="#f2ece4" stroke-opacity="0.14" stroke-width="1.5" fill="none" stroke-dasharray="3 7"/><path d="M1180 190L1180.0 70.0" stroke="#f2ece4" stroke-opacity="0.16" stroke-width="1.5" fill="none"/><circle cx="1180.0" cy="70.0" r="8" fill="#d64f61" fill-opacity="0.85"/><circle cx="1180.0" cy="70.0" r="16" stroke="#f2ece4" stroke-opacity="0.25" stroke-width="1.5" fill="none"/><path d="M1180 190L1294.1267819554184 152.91796067500633" stroke="#f2ece4" stroke-opacity="0.16" stroke-width="1.5" fill="none"/><circle cx="1294.1267819554184" cy="152.91796067500633" r="8" fill="#d64f61" fill-opacity="0.85"/><circle cx="1294.1267819554184" cy="152.91796067500633" r="16" stroke="#f2ece4" stroke-opacity="0.25" stroke-width="1.5" fill="none"/><path d="M1180 190L1250.534230275097 287.08203932499373" stroke="#f2ece4" stroke-opacity="0.16" stroke-width="1.5" fill="none"/><circle cx="1250.534230275097" cy="287.08203932499373" r="8" fill="#d64f61" fill-opacity="0.85"/><circle cx="1250.534230275097" cy="287.08203932499373" r="16" stroke="#f2ece4" stroke-opacity="0.25" stroke-width="1.5" fill="none"/><path d="M1180 190L1109.4657697249033 287.08203932499373" stroke="#f2ece4" stroke-opacity="0.16" stroke-width="1.5" fill="none"/><circle cx="1109.4657697249033" cy="287.08203932499373" r="8" fill="#d64f61" fill-opacity="0.85"/><circle cx="1109.4657697249033" cy="287.08203932499373" r="16" stroke="#f2ece4" stroke-opacity="0.25" stroke-width="1.5" fill="none"/><path d="M1180 190L1065.8732180445816 152.91796067500633" stroke="#f2ece4" stroke-opacity="0.16" stroke-width="1.5" fill="none"/><circle cx="1065.8732180445816" cy="152.91796067500633" r="8" fill="#d64f61" fill-opacity="0.85"/><circle cx="1065.8732180445816" cy="152.91796067500633" r="16" stroke="#f2ece4" stroke-opacity="0.25" stroke-width="1.5" fill="none"/><circle cx="1180" cy="190" r="10" fill="#f2ece4" fill-opacity="0.8"/>
</svg>