<svg xmlns="http://www.w3.org/2000/svg" viewBox="0 0 1600 1000" preserveAspectRatio="xMidYMid slice">
<defs><radialGradient id="g" cx="0.713" cy="0.400" r="0.55"><stop offset="0" stop-color="#d64f61" stop-opacity=".16"/><stop offset="1" stop-color="#d64f61" stop-opacity="0"/></radialGradient></defs>
<rect width="1600" height="1000" fill="#12100f"/><rect width="1600" height="1000" fill="url(#g)"/>
<g stroke="#f2ece4" stroke-opacity=".045" stroke-width="1"><path d="M0 0V1000"/><path d="M80 0V1000"/><path d="M160 0V1000"/><path d="M240 0V1000"/><path d="M320 0V1000"/><path d="M400 0V1000"/><path d="M480 0V1000"/><path d="M560 0V1000"/><path d="M640 0V1000"/><path d="M720 0V1000"/><path d="M800 0V1000"/><path d="M880 0V1000"/><path d="M960 0V1000"/><path d="M1040 0V1000"/><path d="M1120 0V1000"/><path d="M1200 0V1000"/><path d="M1280 0V1000"/><path d="M1360 0V1000"/><path d="M1440 0V1000"/><path d="M1520 0V1000"/><path d="M1600 0V1000"/><path d="M0 0H1600"/><path d="M0 80H1600"/><path d="M0 160H1600"/><path d="M0 240H1600"/><path d="M0 320H1600"/><path d="M0 400H1600"/><path d="M0 480H1600"/><path d="M0 560H1600"/><path d="M0 640H1600"/><path d="M0 720H1600"/><path d="M0 800H1600"/><path d="M0 880H1600"/><path d="M0 960H1600"/></g>
<rect x="770.6102193337429" y="150" width="738.7795613325144" height="64" rx="3" stroke="#f2ece4" stroke-opacity="0" stroke-width="1.5" fill="#d64f61" fill-opacity="0.78"/><rect x="836.4408409730904" y="228" width="607.1183180538192" height="18" rx="2" stroke="#f2ece4" stroke-opacity="0" stroke-width="1.5" fill="#f2ece4" fill-opacity="0.18"/><rect x="787.0754347522069" y="320" width="705.8491304955862" height="64" rx="3" stroke="#f2ece4" stroke-opacity="0" stroke-width="1.5" fill="#d64f61" fill-opacity="0.78"/><rect x="920.3657832623359" y="398" width="439.26843347532827" height="18" rx="2" stroke="#f2ece4" stroke-opacity="0" stroke-width="1.5" fill="#f2ece4" fill-opacity="0.18"/><rect x="956.1733024446578" y="490" width="367.6533951106845" height="64" rx="3" stroke="#f2ece4" stroke-opacity="0" stroke-width="1.5" fill="#d64f61" fill-opacity="0.78"/><rect x="1042.1317004555506" y="568" width="195.7365990888988" height="18" rx="2" stroke="#f2ece4" stroke-opacity="0" stroke-width="1.5" fill="#f2ece4" fill-opacity="0.18"/><rect x="1025.8445648009586" y="660" width="228.31087039808276" height="64" rx="3" stroke="#f2ece4" stroke-opacity="0" stroke-width="1.5" fill="#d64f61" fill-opacity="0.78"/><rect x="1091.9227437574168" y="738" width="96.15451248516646" height="18" rx="2" stroke="#f2ece4" stroke-opacity="0" stroke-width="1.5" fill="#f2ece4" fill-opacity="0.18"/><path d="M720 182L780 182" stroke="#f2ece4" stroke-opacity="0.3" stroke-width="1.5" fill="none"/><path d="M720 352L780 352" stroke="#f2ece4" stroke-opacity="0.3" stroke-width="1.5" fill="none"/><path d="M720 522L780 522" stroke="#f2ece4" stroke-opacity="0.3" stroke-width="1.5" fill="none"/><path d="M720 692L780 692" stroke="#f2ece4" stroke-opacity="0.3" stroke-width="1.5" fill="none"/><path d="M1140 120L1140 780" stroke="#f2ece4" stroke-opacity="0.12" stroke-width="1.5" fill="none" stroke-dasharray="2 8"/>
</svg>