<svg xmlns="http://www.w3.org/2000/svg" viewBox="0 0 1600 1000" preserveAspectRatio="xMidYMid slice">
<defs><radialGradient id="g" cx="0.731" cy="0.420" r="0.55"><stop offset="0" stop-color="#d64f61" stop-opacity=".16"/><stop offset="1" stop-color="#d64f61" stop-opacity="0"/></radialGradient></defs>
<rect width="1600" height="1000" fill="#12100f"/><rect width="1600" height="1000" fill="url(#g)"/>
<g stroke="#f2ece4" stroke-opacity=".045" stroke-width="1"><path d="M0 0V1000"/><path d="M80 0V1000"/><path d="M160 0V1000"/><path d="M240 0V1000"/><path d="M320 0V1000"/><path d="M400 0V1000"/><path d="M480 0V1000"/><path d="M560 0V1000"/><path d="M640 0V1000"/><path d="M720 0V1000"/><path d="M800 0V1000"/><path d="M880 0V1000"/><path d="M960 0V1000"/><path d="M1040 0V1000"/><path d="M1120 0V1000"/><path d="M1200 0V1000"/><path d="M1280 0V1000"/><path d="M1360 0V1000"/><path d="M1440 0V1000"/><path d="M1520 0V1000"/><path d="M1600 0V1000"/><path d="M0 0H1600"/><path d="M0 80H1600"/><path d="M0 160H1600"/><path d="M0 240H1600"/><path d="M0 320H1600"/><path d="M0 400H1600"/><path d="M0 480H1600"/><path d="M0 560H1600"/><path d="M0 640H1600"/><path d="M0 720H1600"/><path d="M0 800H1600"/><path d="M0 880H1600"/><path d="M0 960H1600"/></g>
<circle cx="1170" cy="420" r="70" stroke="#d64f61" stroke-opacity="0.34" stroke-width="2" fill="none"/><circle cx="1170" cy="420" r="150" stroke="#f2ece4" stroke-opacity="0.28" stroke-width="1.5" fill="none"/><circle cx="1170" cy="420" r="240" stroke="#f2ece4" stroke-opacity="0.22000000000000003" stroke-width="1.5" fill="none" stroke-dasharray="3 8"/><circle cx="1170" cy="420" r="340" stroke="#f2ece4" stroke-opacity="0.16000000000000003" stroke-width="1.5" fill="none" stroke-dasharray="3 8"/><circle cx="1170" cy="420" r="14" fill="#d64f61" fill-opacity="1"/><path d="M1170 420L1310.9538931178863 471.3030214988503" stroke="#f2ece4" stroke-opacity="0.07" stroke-width="1.5" fill="none"/><circle cx="1310.9538931178863" cy="471.3030214988503" r="6" fill="#d64f61" fill-opacity="0.85"/><path d="M1170 420L1055.0933335321533 516.4181414529809" stroke="#f2ece4" stroke-opacity="0.07" stroke-width="1.5" fill="none"/><circle cx="1055.0933335321533" cy="516.4181414529809" r="6" fill="#d64f61" fill-opacity="0.85"/><path d="M1170 420L1118.6969785011497 279.04610688211375" stroke="#f2ece4" stroke-opacity="0.07" stroke-width="1.5" fill="none"/><circle cx="1118.6969785011497" cy="279.04610688211375" r="6" fill="#d64f61" fill-opacity="0.85"/><path d="M1170 420L1232.1165708246049 651.8221983093764" stroke="#f2ece4" stroke-opacity="0.07" stroke-width="1.5" fill="none"/><circle cx="1232.1165708246049" cy="651.8221983093764" r="6" fill="#f2ece4" fill-opacity="0.45"/><path d="M1170 420L933.64613927707 378.32443735993667" stroke="#f2ece4" stroke-opacity="0.07" stroke-width="1.5" fill="none"/><circle cx="933.64613927707" cy="378.32443735993667" r="6" fill="#f2ece4" fill-opacity="0.45"/><path d="M1170 420L1290.0 212.15390309173475" stroke="#f2ece4" stroke-opacity="0.07" stroke-width="1.5" fill="none"/><circle cx="1290.0" cy="212.15390309173475" r="6" fill="#f2ece4" fill-opacity="0.45"/><path d="M1170 420L1401.8221983093763 357.883429175395" stroke="#f2ece4" stroke-opacity="0.07" stroke-width="1.5" fill="none"/><circle cx="1401.8221983093763" cy="357.883429175395" r="6" fill="#f2ece4" fill-opacity="0.45"/><path d="M1170 420L1504.8346360241508 479.0403804067563" stroke="#f2ece4" stroke-opacity="0.07" stroke-width="1.5" fill="none"/><circle cx="1504.8346360241508" cy="479.0403804067563" r="4" fill="#f2ece4" fill-opacity="0.45"/><path d="M1170 420L1053.7131512692727 739.4954910672088" stroke="#f2ece4" stroke-opacity="0.07" stroke-width="1.5" fill="none"/><circle cx="1053.7131512692727" cy="739.4954910672088" r="4" fill="#f2ece4" fill-opacity="0.45"/><path d="M1170 420L850.5045089327912 536.2868487307275" stroke="#f2ece4" stroke-opacity="0.07" stroke-width="1.5" fill="none"/><circle cx="850.5045089327912" cy="536.2868487307275" r="4" fill="#f2ece4" fill-opacity="0.45"/><path d="M1170 420L909.5448893395475 201.45221270657666" stroke="#f2ece4" stroke-opacity="0.07" stroke-width="1.5" fill="none"/><circle cx="909.5448893395475" cy="201.45221270657666" r="4" fill="#f2ece4" fill-opacity="0.45"/><path d="M1170 420L1229.0403804067562 85.16536397584923" stroke="#f2ece4" stroke-opacity="0.07" stroke-width="1.5" fill="none"/><circle cx="1229.0403804067562" cy="85.16536397584923" r="4" fill="#f2ece4" fill-opacity="0.45"/><path d="M1170 420L1464.448637286709 249.99999999999986" stroke="#f2ece4" stroke-opacity="0.07" stroke-width="1.5" fill="none"/><circle cx="1464.448637286709" cy="249.99999999999986" r="4" fill="#f2ece4" fill-opacity="0.45"/>
</svg>